<?xml version="1.0" standalone="no"?>
<!DOCTYPE svg PUBLIC "-//W3C//DTD SVG 20010904//EN"
 "http://www.w3.org/TR/2001/REC-SVG-20010904/DTD/svg10.dtd">
<svg version="1.0" xmlns="http://www.w3.org/2000/svg"
 width="1280.000000pt" height="1280.000000pt" viewBox="0 0 1280.000000 1280.000000"
 preserveAspectRatio="xMidYMid meet">
<metadata>
Created by potrace 1.11, written by Peter Selinger 2001-2013
</metadata>
<g transform="translate(0.000000,1280.000000) scale(0.100000,-0.100000)"
fill="#000000" stroke="none">
<path d="M6120 12790 c-1176 -53 -2296 -419 -3270 -1070 -1035 -692 -1848
-1670 -2337 -2814 -570 -1334 -666 -2856 -267 -4257 255 -899 694 -1712 1313
-2434 124 -144 424 -449 576 -584 950 -848 2103 -1386 3355 -1565 330 -48 517
-60 910 -60 393 0 580 12 910 60 1509 216 2892 965 3898 2112 1549 1766 2006
4213 1199 6427 -570 1565 -1772 2876 -3287 3586 -938 439 -1970 645 -3000 599z
m2953 -3562 c115 -32 275 -106 366 -171 198 -140 369 -382 430 -607 42 -156
42 -174 38 -1765 -3 -1675 1 -1552 -61 -1734 -108 -313 -383 -582 -703 -686
-161 -53 -197 -55 -1008 -55 l-750 0 -339 -538 c-187 -295 -354 -556 -372
-578 -70 -87 -197 -141 -310 -131 -80 6 -175 50 -230 105 -22 23 -197 289
-389 592 l-347 550 -752 0 c-593 1 -767 4 -828 15 -237 42 -456 160 -623 336
-160 169 -265 388 -295 614 -8 66 -10 495 -8 1620 l3 1530 27 100 c84 308 291
567 569 710 111 57 178 81 294 105 86 18 195 18 2640 17 l2550 -2 98 -27z"/>
<path d="M4280 7835 l0 -255 2110 0 2110 0 -2 253 -3 252 -2107 3 -2108 2 0
-255z"/>
<path d="M4280 6765 l0 -255 1548 -1 c851 -1 1799 -2 2107 -3 l560 -1 0 255 0
255 -2107 3 -2108 2 0 -255z"/>
<path d="M4280 5695 l0 -255 468 -1 c257 -1 791 -2 1187 -3 l720 -1 0 255 0
255 -1187 3 -1188 2 0 -255z"/>
</g>
</svg>
