<?xml version="1.0" standalone="no"?>
<!DOCTYPE svg PUBLIC "-//W3C//DTD SVG 20010904//EN"
 "http://www.w3.org/TR/2001/REC-SVG-20010904/DTD/svg10.dtd">
<svg version="1.0" xmlns="http://www.w3.org/2000/svg"
 width="1280.000000pt" height="1280.000000pt" viewBox="0 0 1280.000000 1280.000000"
 preserveAspectRatio="xMidYMid meet">
<metadata>
Created by potrace 1.11, written by Peter Selinger 2001-2013
</metadata>
<g transform="translate(0.000000,1280.000000) scale(0.100000,-0.100000)"
fill="#000000" stroke="none">
<path d="M6120 12790 c-1176 -53 -2296 -419 -3270 -1070 -1035 -692 -1848
-1670 -2337 -2814 -570 -1334 -666 -2856 -267 -4257 255 -899 694 -1712 1313
-2434 124 -144 424 -449 576 -584 950 -848 2103 -1386 3355 -1565 330 -48 517
-60 910 -60 393 0 580 12 910 60 1509 216 2892 965 3898 2112 1549 1766 2006
4213 1199 6427 -570 1565 -1772 2876 -3287 3586 -938 439 -1970 645 -3000 599z
m3120 -3113 c201 -68 359 -235 405 -428 13 -56 15 -393 15 -2765 0 -2657 0
-2702 -20 -2778 -63 -247 -258 -411 -519 -437 -59 -6 -1145 -9 -2796 -7
l-2700 3 -80 27 c-157 54 -275 157 -345 303 -21 44 -44 109 -50 145 -7 46 -10
618 -8 1935 l3 1870 28 78 c87 247 262 377 509 377 l88 0 0 -1652 c0 -1854 -7
-1688 73 -1752 34 -27 47 -31 101 -31 76 0 132 32 162 92 18 37 19 101 24
2313 l5 2275 22 59 c76 202 258 354 463 389 14 3 1047 4 2295 3 2178 -1 2272
-2 2325 -19z"/>
<path d="M5109 8867 c-71 -47 -69 -28 -69 -647 0 -631 -3 -605 80 -647 l44
-23 546 0 546 0 44 23 c83 42 80 16 80 647 0 619 2 600 -69 647 l-34 23 -567
0 -567 0 -34 -23z"/>
<path d="M7277 8853 c-4 -3 -7 -84 -7 -180 l0 -173 720 0 720 0 0 180 0 180
-713 0 c-393 0 -717 -3 -720 -7z"/>
<path d="M7272 7693 l3 -178 718 -3 717 -2 0 180 0 180 -720 0 -720 0 2 -177z"/>
<path d="M5080 6710 l0 -180 1815 0 1815 0 0 180 0 180 -1815 0 -1815 0 0
-180z"/>
<path d="M5080 5720 l0 -180 1815 0 1815 0 0 180 0 180 -1815 0 -1815 0 0
-180z"/>
<path d="M5080 4740 l0 -180 1815 0 1815 0 0 180 0 180 -1815 0 -1815 0 0
-180z"/>
</g>
</svg>
