<?xml version="1.0" standalone="no"?>
<!DOCTYPE svg PUBLIC "-//W3C//DTD SVG 20010904//EN"
 "http://www.w3.org/TR/2001/REC-SVG-20010904/DTD/svg10.dtd">
<svg version="1.0" xmlns="http://www.w3.org/2000/svg"
 width="1280.000000pt" height="1280.000000pt" viewBox="0 0 1280.000000 1280.000000"
 preserveAspectRatio="xMidYMid meet">
<metadata>
Created by potrace 1.11, written by Peter Selinger 2001-2013
</metadata>
<g transform="translate(0.000000,1280.000000) scale(0.100000,-0.100000)"
fill="#000000" stroke="none">
<path d="M6120 12790 c-1176 -53 -2296 -419 -3270 -1070 -1035 -692 -1848
-1670 -2337 -2814 -570 -1334 -666 -2856 -267 -4257 255 -899 694 -1712 1313
-2434 124 -144 424 -449 576 -584 950 -848 2103 -1386 3355 -1565 330 -48 517
-60 910 -60 393 0 580 12 910 60 1509 216 2892 965 3898 2112 1549 1766 2006
4213 1199 6427 -570 1565 -1772 2876 -3287 3586 -938 439 -1970 645 -3000 599z
m575 -3650 c1390 -101 2655 -839 3432 -2000 144 -216 283 -467 381 -693 l43
-97 -42 -97 c-476 -1083 -1378 -1952 -2479 -2386 -404 -159 -761 -246 -1230
-299 -176 -19 -708 -16 -895 6 -1067 125 -1983 565 -2730 1311 -378 378 -716
870 -930 1358 l-48 107 48 108 c310 704 819 1339 1445 1804 680 505 1507 815
2340 877 166 12 503 13 665 1z"/>
<path d="M6180 8129 c-524 -60 -1006 -366 -1279 -812 -188 -307 -269 -614
-258 -977 8 -282 60 -489 182 -735 209 -418 584 -740 1025 -880 609 -192 1268
-38 1724 404 268 260 433 564 508 933 20 99 23 142 22 338 0 255 -13 338 -84
553 -258 773 -1032 1269 -1840 1176z m438 -713 c483 -134 802 -568 779 -1061
-15 -302 -144 -566 -372 -758 -181 -152 -388 -232 -630 -244 -465 -22 -887
266 -1038 707 -86 253 -73 538 38 776 95 206 256 379 455 487 105 58 208 92
360 121 14 2 90 3 170 1 118 -3 163 -8 238 -29z"/>
</g>
</svg>
