<?xml version="1.0" standalone="no"?>
<!DOCTYPE svg PUBLIC "-//W3C//DTD SVG 20010904//EN"
 "http://www.w3.org/TR/2001/REC-SVG-20010904/DTD/svg10.dtd">
<svg version="1.0" xmlns="http://www.w3.org/2000/svg"
 width="1280.000000pt" height="1280.000000pt" viewBox="0 0 1280.000000 1280.000000"
 preserveAspectRatio="xMidYMid meet">
<metadata>
Created by potrace 1.11, written by Peter Selinger 2001-2013
</metadata>
<g transform="translate(0.000000,1280.000000) scale(0.100000,-0.100000)"
fill="#000000" stroke="none">
<path d="M6120 12790 c-1176 -53 -2296 -419 -3270 -1070 -1035 -692 -1848
-1670 -2337 -2814 -570 -1334 -666 -2856 -267 -4257 255 -899 694 -1712 1313
-2434 124 -144 424 -449 576 -584 950 -848 2103 -1386 3355 -1565 330 -48 517
-60 910 -60 393 0 580 12 910 60 1509 216 2892 965 3898 2112 1549 1766 2006
4213 1199 6427 -570 1565 -1772 2876 -3287 3586 -938 439 -1970 645 -3000 599z
m-129 -2392 c100 -37 157 -74 234 -152 52 -52 82 -93 112 -156 76 -154 73 -90
73 -1401 l0 -1169 53 41 c226 181 558 170 774 -25 61 -56 127 -148 153 -216 7
-19 15 -37 16 -39 2 -2 31 22 64 52 66 61 170 117 260 138 30 7 98 13 150 12
229 -1 429 -129 531 -339 21 -44 39 -88 39 -98 0 -12 16 -3 61 34 310 258 745
164 930 -201 29 -58 49 -130 68 -251 12 -73 12 -1605 1 -2273 -7 -358 -9 -387
-33 -501 -171 -792 -790 -1375 -1605 -1511 -127 -21 -940 -31 -1137 -13 -394
34 -746 175 -1055 420 -91 72 -227 209 -299 300 -112 140 -2049 3070 -2079
3143 -49 121 -51 239 -7 372 36 107 71 163 160 251 63 63 100 90 166 123 181
89 366 93 534 10 123 -60 146 -90 531 -679 196 -300 367 -556 380 -569 28 -30
86 -34 112 -8 16 17 17 142 22 2130 5 2026 6 2114 24 2167 60 178 163 298 323
380 89 44 170 61 283 56 68 -3 114 -11 161 -28z"/>
</g>
</svg>
